<svg xmlns="http://www.w3.org/2000/svg" version="1.0" width="330" height="110" viewBox="0 0 330 110" class="css-1j8o68f"><defs id="SvgjsDefs2589"></defs><g id="SvgjsG2590" featurekey="symbolContainer" transform="matrix(1,0,0,1,0,0)" fill="#f8b500"><rect width="110" height="110" rx="8"></rect></g><g id="SvgjsG2591" featurekey="monogramFeature-0" transform="matrix(1.7006804360321732,0,0,1.7006804360321732,15.918367602280885,-7.448981431245635)" fill="#f7f7f7"><path d="M16.98 60 l0 -35.16 l-14.58 0 l0 -11.64 l41.16 0 l0 11.64 l-14.58 0 l0 35.16 l-12 0 z"></path></g><g id="SvgjsG2592" featurekey="nameFeature-0" transform="matrix(1.5055706527669708,0,0,1.5055706527669708,127.59108781706729,15.93315216679635)" fill="#ffffff"><path d="M21.4 12 l0 5.36 l-6.96 0 l0 22.64 l-5.84 0 l0 -22.64 l-7 0 l0 -5.36 l19.8 0 z M38 18.88 c0.52 0 1 0 1.52 0.12 l0 5.48 c-0.48 -0.12 -0.96 -0.12 -1.36 -0.12 c-3.84 0 -7 2.76 -7.36 6.76 l0 8.88 l-5.72 0 l0 -20.8 l5.72 0 l0 5.2 c0.92 -3.16 3.44 -5.52 7.2 -5.52 z M58.16 19.2 l5.72 0 l0 20.8 l-5.72 0 l0 -2.56 c-0.12 0.84 -2.16 2.96 -5.76 2.96 c-4.76 0 -10.28 -3.44 -10.28 -10.84 c0 -7.16 5.52 -10.72 10.28 -10.72 c3.6 0 5.64 2.24 5.76 2.68 l0 -2.32 z M53.2 35.32 c2.8 0 5.24 -1.92 5.24 -5.76 c0 -3.72 -2.44 -5.64 -5.24 -5.64 c-2.88 0 -5.52 1.96 -5.52 5.64 c0 3.8 2.64 5.76 5.52 5.76 z M78.2 18.84 c3.8 0 7 1.64 8.96 5 l-4.4 2.04 c-1.12 -1.12 -2.2 -1.96 -4.48 -1.96 c-2.6 0 -5.36 1.96 -5.36 5.72 c0 3.72 2.76 5.64 5.36 5.64 c2.28 0 3.36 -0.8 4.48 -1.92 l4.44 2.04 c-2 3.36 -5.12 4.92 -9 4.92 c-4.64 0 -10.84 -3.36 -10.84 -10.68 c0 -7.24 6.2 -10.8 10.84 -10.8 z M99.68 18.84 c4.72 0 11.24 3.56 10 12.76 l-15.12 0 c0.72 2.6 2.88 3.96 5.68 3.96 c2.6 0 3.6 -0.6 5.08 -1.4 l3.16 3.08 c-1.8 1.88 -4.36 3.16 -8.44 3.16 c-5.2 0 -11.28 -3.56 -11.28 -10.72 c0 -7.28 6.2 -10.84 10.92 -10.84 z M99.68 23.72 c-2.08 0 -4.28 1.28 -5.04 3.84 l10 0 c-0.64 -2.56 -2.92 -3.84 -4.96 -3.84 z M123.56 18.84 c4.72 0 10.88 3.56 10.88 10.84 s-6.16 10.72 -10.88 10.72 s-10.92 -3.44 -10.92 -10.72 s6.2 -10.84 10.92 -10.84 z M123.56 23.92 c-2.6 0 -5.36 1.96 -5.36 5.76 c0 3.68 2.76 5.64 5.36 5.64 c2.56 0 5.36 -1.96 5.36 -5.64 c0 -3.8 -2.8 -5.76 -5.36 -5.76 z"></path></g></svg>