<?xml version="1.0" standalone="no"?>
<!DOCTYPE svg PUBLIC "-//W3C//DTD SVG 20010904//EN"
 "http://www.w3.org/TR/2001/REC-SVG-20010904/DTD/svg10.dtd">
<svg version="1.0" xmlns="http://www.w3.org/2000/svg"
 width="779.000000pt" height="339.000000pt" viewBox="0 0 779.000000 339.000000"
 preserveAspectRatio="xMidYMid meet">
<metadata>
Created by potrace 1.15, written by Peter Selinger 2001-2017
</metadata>
<g transform="translate(0.000000,339.000000) scale(0.100000,-0.100000)"
fill="currentColor" stroke="none">
<path d="M1500 2260 l-115 -66 -3 -140 -3 -140 112 -64 c62 -36 116 -66 120
-68 4 -2 59 27 123 64 l116 67 0 141 0 141 -68 37 c-37 21 -89 50 -117 66
l-50 29 -115 -67z m190 -88 l65 -38 3 -80 3 -79 -67 -39 c-36 -22 -72 -39 -78
-39 -6 0 -41 17 -79 38 l-67 39 0 78 0 77 68 40 c37 23 72 41 77 41 6 0 39
-17 75 -38z"/>
<path d="M2530 2135 l0 -75 -45 0 -45 0 0 -80 0 -80 44 0 44 0 4 -177 c3 -153
6 -183 23 -217 33 -65 63 -81 163 -84 48 -2 99 1 115 7 26 10 27 13 27 85 l0
75 -50 -6 c-40 -5 -54 -2 -70 12 -18 16 -20 31 -20 162 l0 143 65 0 65 0 0 80
0 80 -65 0 -65 0 0 75 0 75 -95 0 -95 0 0 -75z"/>
<path d="M3315 2059 c-52 -12 -109 -59 -138 -112 l-22 -42 -3 78 -3 77 -89 0
-90 0 0 -320 0 -320 90 0 90 0 0 128 c0 70 5 145 10 166 21 92 103 160 208
173 l53 6 -3 86 -3 86 -30 2 c-16 1 -48 -3 -70 -8z"/>
<path d="M3751 2060 c-97 -21 -184 -98 -221 -196 -44 -119 -13 -278 71 -363
82 -83 238 -112 327 -62 23 14 42 28 42 33 0 4 5 8 10 8 6 0 10 -13 10 -30 l0
-30 90 0 90 0 0 320 0 320 -90 0 c-89 0 -90 0 -90 -25 0 -14 -2 -25 -4 -25 -2
0 -24 11 -49 25 -51 29 -121 38 -186 25z m173 -179 c47 -31 66 -69 66 -134 0
-114 -52 -171 -151 -165 -100 7 -155 72 -147 175 5 62 29 100 79 125 45 24
116 23 153 -1z"/>
<path d="M4533 2055 c-103 -29 -198 -114 -228 -206 -24 -70 -17 -188 13 -250
63 -129 206 -200 360 -178 87 12 148 47 192 109 l21 30 -71 35 -72 34 -29 -21
c-43 -32 -124 -35 -173 -6 -55 32 -78 79 -74 149 7 96 64 149 161 149 30 0 56
-8 80 -24 l36 -25 71 35 71 34 -21 30 c-68 95 -212 140 -337 105z"/>
<path d="M5190 2055 c-150 -42 -243 -162 -243 -317 -1 -66 4 -85 31 -141 38
-76 72 -109 162 -151 55 -26 76 -30 150 -30 47 0 103 5 125 12 54 16 126 63
123 81 -2 8 -24 32 -49 53 l-47 40 -46 -16 c-90 -31 -180 -15 -231 40 -49 53
-45 54 195 54 l219 0 6 33 c8 43 -9 139 -36 193 -59 122 -217 188 -359 149z
m132 -155 c34 -10 88 -59 88 -81 0 -5 -59 -9 -135 -9 l-136 0 12 22 c16 31 48
56 84 67 40 12 44 12 87 1z"/>
<path d="M5929 2056 c-156 -42 -256 -176 -247 -331 9 -130 75 -228 192 -281
50 -23 75 -28 141 -29 71 0 88 4 147 33 268 132 237 514 -49 602 -74 23 -118
24 -184 6z m161 -179 c48 -31 72 -78 72 -137 0 -164 -204 -222 -279 -80 -29
55 -29 105 0 160 41 77 138 104 207 57z"/>
<path d="M1218 1782 l-117 -67 -1 -137 0 -136 121 -70 121 -69 117 67 116 68
3 139 2 138 -118 68 c-64 37 -120 67 -122 67 -3 -1 -58 -31 -122 -68z m193
-82 l69 -41 0 -82 0 -82 -67 -39 -67 -39 -73 39 -73 39 0 82 0 81 68 40 c37
22 68 41 70 41 2 1 35 -17 73 -39z"/>
<path d="M1768 1782 l-118 -67 0 -137 0 -136 114 -66 c62 -36 119 -66 126 -66
8 0 64 30 127 66 l113 66 0 136 0 137 -119 68 c-65 37 -120 67 -122 67 -2 0
-57 -31 -121 -68z m193 -83 l69 -41 0 -82 0 -81 -66 -37 c-36 -21 -70 -38 -74
-38 -4 0 -38 17 -74 38 l-66 37 0 82 0 81 68 40 c37 22 68 41 70 41 2 1 35
-18 73 -40z"/>
</g>
</svg>
